# xmcd CD database file
#
# Track frame offsets:
#	150
#	24704
#	54742
#	86115
#	113437
#	129718
#	154489
#	176890
#	198447
#	226978
#	247867
#
# Disc length: 3473 seconds
#
# Revision: 0
# Processed by: cddbd v1.5.2PL0 Copyright (c) Steve Scherf et al.
# Submitted via: CDex 1.70beta2
#
DISCID=940d8f0b
DTITLE=Guarachando - Alquimia
DYEAR=2008
DGENRE=Salsa
TTITLE0=Música Pa La Escuela
TTITLE1=Ha Llegado La Hora
TTITLE2=Oye Mi Rumba
TTITLE3=Despacio
TTITLE4=Descarga Pa Fransua
TTITLE5=Sera Mejor
TTITLE6=Alquimia
TTITLE7=Corre Perico
TTITLE8=La Manzana
TTITLE9=El Privilegiado
TTITLE10=Invitación
EXTD=YEAR: 2008
EXTT0=
EXTT1=
EXTT2=
EXTT3=
EXTT4=
EXTT5=
EXTT6=
EXTT7=
EXTT8=
EXTT9=
EXTT10=
PLAYORDER=
